arm26_HoldHorizontal_states
version=1
nRows=17
nColumns=17
inDegrees=yes

# SIMM Motion File Header:
name arm26_HoldHorizontal_states
datacolumns 17
datarows 17
otherdata 1
range 0.34332418 0.37967892
endheader
time	r_shoulder_elev	r_elbow_flex	r_shoulder_elev_u	r_elbow_flex_u	TRIlong.activation	TRIlong.fiber_length	TRIlat.activation	TRIlat.fiber_length	TRImed.activation	TRImed.fiber_length	BIClong.activation	BIClong.fiber_length	BICshort.activation	BICshort.fiber_length	BRA.activation	BRA.fiber_length
      0.34332418	      5.04636343	      0.61891146	   -407.11719488	    -53.69849844	      0.02000000	      0.14054576	      0.02000000	      0.07077243	      0.10000000	      0.06526284	      0.10000000	      0.14255305	      0.02000000	      0.14722470	      0.02000000	      0.08691402
      0.34529778	      4.24343317	      0.51213279	   -406.54424485	    -54.50493821	      0.02000000	      0.14001747	      0.02000000	      0.07073662	      0.10000000	      0.06522777	      0.10000000	      0.14280142	      0.02000000	      0.14724619	      0.02000000	      0.08690977
      0.34832747	      3.01316490	      0.34516502	   -405.57982103	    -55.71054155	      0.02000000	      0.13920399	      0.02000000	      0.07068073	      0.10000000	      0.06517298	      0.10000000	      0.14318143	      0.02000000	      0.14730711	      0.02000000	      0.08690299
      0.35065355	      2.07069019	      0.21451186	   -404.76413082	    -56.62741647	      0.02000000	      0.13858290	      0.02000000	      0.07063708	      0.10000000	      0.06513018	      0.10000000	      0.14347057	      0.02000000	      0.14738138	      0.02000000	      0.08689757
      0.35297963	      1.13019359	      0.08172169	   -403.87835631	    -57.54987608	      0.02000000	      0.13796083	      0.02000000	      0.07059283	      0.10000000	      0.06508676	      0.10000000	      0.14375923	      0.02000000	      0.14747902	      0.02000000	      0.08689196
      0.35549444	      0.11580569	     -0.06427987	   -402.83788341	    -58.56790518	      0.02000000	      0.13729085	      0.02000000	      0.07054432	      0.10000000	      0.06503914	      0.10000000	      0.14406908	      0.02000000	      0.14760690	      0.02000000	      0.08688567
      0.35800925	     -0.89585546	     -0.21287538	   -401.70956293	    -59.61379630	      0.02000000	      0.13662248	      0.02000000	      0.07049511	      0.10000000	      0.06499082	      0.10000000	      0.14437722	      0.02000000	      0.14775478	      0.02000000	      0.08687914
      0.36075497	     -1.99702946	     -0.37816630	   -400.37624057	    -60.79304008	      0.02000000	      0.13589549	      0.02000000	      0.07044058	      0.10000000	      0.06493728	      0.10000000	      0.14471118	      0.02000000	      0.14793627	      0.02000000	      0.08687174
      0.36350068	     -3.09439706	     -0.54675127	   -398.93694295	    -62.01365432	      0.02000000	      0.13517165	      0.02000000	      0.07038520	      0.10000000	      0.06488289	      0.10000000	      0.14504256	      0.02000000	      0.14813914	      0.02000000	      0.08686402
      0.36624639	     -4.18766702	     -0.71874810	   -397.39161104	    -63.27831387	      0.02000000	      0.13445134	      0.02000000	      0.07032895	      0.10000000	      0.06482765	      0.10000000	      0.14537119	      0.02000000	      0.14836208	      0.02000000	      0.08685599
      0.36933437	     -5.41196052	     -0.91641563	   -395.52715469	    -64.75594559	      0.02000000	      0.13363732	      0.02000000	      0.07026463	      0.10000000	      0.06476448	      0.10000000	      0.14573763	      0.02000000	      0.14863337	      0.02000000	      0.08684656
      0.37148563	     -6.26136869	     -1.05687396	   -394.14812317	    -65.83351027	      0.02000000	      0.13305838	      0.02000000	      0.07021914	      0.10000000	      0.06471982	      0.10000000	      0.14599008	      0.02000000	      0.14884594	      0.02000000	      0.08683972
      0.37312603	     -6.90703515	     -1.16556432	   -393.05153038	    -66.68837598	      0.02000000	      0.13261615	      0.02000000	      0.07018407	      0.10000000	      0.06468538	      0.10000000	      0.14618165	      0.02000000	      0.14899974	      0.02000000	      0.08683435
      0.37476643	     -7.55087143	     -1.27567837	   -391.91686927	    -67.56867434	      0.02000000	      0.13217561	      0.02000000	      0.07014866	      0.10000000	      0.06465061	      0.10000000	      0.14637208	      0.02000000	      0.14917278	      0.02000000	      0.08682885
      0.37658581	     -8.26273801	     -1.39952419	   -390.61336598	    -68.57878279	      0.02000000	      0.13168929	      0.02000000	      0.07010897	      0.10000000	      0.06461165	      0.10000000	      0.14658198	      0.02000000	      0.14935890	      0.02000000	      0.08682258
      0.37813236	     -8.86596297	     -1.50626550	   -389.46879413	    -69.46171352	      0.02000000	      0.13127789	      0.02000000	      0.07007489	      0.10000000	      0.06457819	      0.10000000	      0.14675923	      0.02000000	      0.14954847	      0.02000000	      0.08681712
      0.37967892	     -9.46739150	     -1.61439257	   -388.29005540	    -70.37295398	      0.02000000	      0.13086840	      0.02000000	      0.07004048	      0.10000000	      0.06454442	      0.10000000	      0.14693544	      0.02000000	      0.14970293	      0.02000000	      0.08681151
